<svg width="159" height="31" viewBox="0 0 159 31" fill="none" xmlns="http://www.w3.org/2000/svg">
<path d="M41.9 23V6.488H49.124C50.18 6.488 51.02 6.624 51.644 6.896C52.284 7.152 52.756 7.512 53.06 7.976C53.38 8.44 53.596 8.992 53.708 9.632C53.82 10.256 53.876 10.944 53.876 11.696C53.876 12.416 53.82 13.096 53.708 13.736C53.612 14.36 53.404 14.912 53.084 15.392C52.764 15.872 52.284 16.248 51.644 16.52C51.004 16.792 50.148 16.928 49.076 16.928H43.964V23H41.9ZM43.964 15.128H48.404C49.188 15.128 49.804 15.064 50.252 14.936C50.716 14.808 51.06 14.608 51.284 14.336C51.508 14.048 51.652 13.688 51.716 13.256C51.78 12.824 51.812 12.304 51.812 11.696C51.812 11.088 51.78 10.568 51.716 10.136C51.668 9.704 51.532 9.352 51.308 9.08C51.1 8.808 50.764 8.608 50.3 8.48C49.852 8.336 49.236 8.264 48.452 8.264H43.964V15.128ZM58.2203 23V5.168H60.1883V23H58.2203ZM68.602 23.192C67.706 23.192 66.954 23.088 66.346 22.88C65.754 22.672 65.306 22.312 65.002 21.8C64.714 21.288 64.57 20.568 64.57 19.64C64.57 18.712 64.674 17.984 64.882 17.456C65.106 16.912 65.49 16.528 66.034 16.304C66.578 16.08 67.338 15.968 68.314 15.968C68.474 15.968 68.722 15.976 69.058 15.992C69.41 15.992 69.81 16 70.258 16.016C70.706 16.016 71.154 16.024 71.602 16.04C72.066 16.04 72.49 16.048 72.874 16.064V15.296C72.874 14.576 72.826 14.016 72.73 13.616C72.65 13.2 72.474 12.896 72.202 12.704C71.93 12.496 71.546 12.368 71.05 12.32C70.57 12.256 69.93 12.224 69.13 12.224C68.778 12.224 68.362 12.24 67.882 12.272C67.402 12.288 66.93 12.32 66.466 12.368C66.018 12.4 65.658 12.44 65.386 12.488V10.904C65.994 10.792 66.674 10.712 67.426 10.664C68.194 10.6 68.986 10.568 69.802 10.568C70.666 10.568 71.394 10.624 71.986 10.736C72.594 10.832 73.082 10.992 73.45 11.216C73.834 11.44 74.122 11.736 74.314 12.104C74.506 12.472 74.634 12.92 74.698 13.448C74.778 13.976 74.818 14.592 74.818 15.296V23H73.066L72.994 21.272H72.85C72.594 21.832 72.226 22.256 71.746 22.544C71.282 22.816 70.77 22.992 70.21 23.072C69.65 23.152 69.114 23.192 68.602 23.192ZM69.322 21.584C69.786 21.584 70.218 21.56 70.618 21.512C71.018 21.448 71.37 21.336 71.674 21.176C71.978 21.016 72.218 20.776 72.394 20.456C72.57 20.12 72.69 19.76 72.754 19.376C72.834 18.976 72.874 18.512 72.874 17.984V17.36H68.794C68.17 17.36 67.69 17.408 67.354 17.504C67.018 17.6 66.786 17.8 66.658 18.104C66.546 18.408 66.49 18.864 66.49 19.472C66.49 20.064 66.562 20.512 66.706 20.816C66.85 21.12 67.122 21.328 67.522 21.44C67.938 21.536 68.538 21.584 69.322 21.584ZM79.9781 23V10.76H81.7541L81.8261 12.512H81.9701C82.1461 12.128 82.3861 11.792 82.6901 11.504C83.0101 11.216 83.4341 10.992 83.9621 10.832C84.5061 10.656 85.1941 10.568 86.0261 10.568C86.9381 10.568 87.6661 10.664 88.2101 10.856C88.7541 11.048 89.1701 11.336 89.4581 11.72C89.7621 12.104 89.9621 12.6 90.0581 13.208C90.1541 13.8 90.2021 14.512 90.2021 15.344V23H88.2581V16.016C88.2581 15.184 88.2181 14.528 88.1381 14.048C88.0741 13.552 87.9381 13.184 87.7301 12.944C87.5221 12.688 87.2181 12.52 86.8181 12.44C86.4181 12.36 85.8901 12.32 85.2341 12.32C84.4501 12.32 83.8341 12.424 83.3861 12.632C82.9381 12.824 82.6101 13.112 82.4021 13.496C82.1941 13.864 82.0661 14.32 82.0181 14.864C81.9701 15.392 81.9461 16 81.9461 16.688V23H79.9781ZM100.337 23.192C99.3453 23.192 98.5133 23.128 97.8413 23C97.1853 22.872 96.6573 22.664 96.2573 22.376C95.8573 22.072 95.5533 21.68 95.3453 21.2C95.1373 20.704 95.0013 20.104 94.9373 19.4C94.8733 18.696 94.8413 17.864 94.8413 16.904C94.8413 15.768 94.8893 14.8 94.9853 14C95.0813 13.184 95.2973 12.528 95.6333 12.032C95.9853 11.52 96.5293 11.152 97.2653 10.928C98.0013 10.688 98.9933 10.568 100.241 10.568C101.185 10.568 101.953 10.64 102.545 10.784C103.153 10.928 103.633 11.152 103.985 11.456C104.337 11.76 104.593 12.168 104.753 12.68C104.929 13.176 105.041 13.776 105.089 14.48C105.137 15.168 105.161 15.968 105.161 16.88V17.528H96.7853C96.7853 18.36 96.8253 19.04 96.9053 19.568C96.9853 20.096 97.1453 20.504 97.3853 20.792C97.6413 21.08 98.0333 21.28 98.5613 21.392C99.1053 21.504 99.8413 21.56 100.769 21.56C101.153 21.56 101.577 21.552 102.041 21.536C102.505 21.504 102.969 21.464 103.433 21.416C103.897 21.368 104.313 21.32 104.681 21.272V22.856C104.345 22.92 103.929 22.976 103.433 23.024C102.953 23.072 102.441 23.112 101.897 23.144C101.369 23.176 100.849 23.192 100.337 23.192ZM103.265 16.544V15.896C103.265 15.064 103.217 14.408 103.121 13.928C103.025 13.432 102.857 13.064 102.617 12.824C102.393 12.568 102.081 12.4 101.681 12.32C101.281 12.24 100.785 12.2 100.193 12.2C99.4253 12.2 98.8173 12.256 98.3693 12.368C97.9213 12.464 97.5853 12.648 97.3613 12.92C97.1373 13.192 96.9853 13.584 96.9053 14.096C96.8253 14.608 96.7853 15.288 96.7853 16.136H103.721L103.265 16.544ZM110.784 23V12.416H108.312V10.76H110.784V7.208H112.728V10.76H115.656V12.416H112.728V23H110.784ZM122.407 23.192C121.511 23.192 120.759 23.088 120.151 22.88C119.559 22.672 119.111 22.312 118.807 21.8C118.519 21.288 118.375 20.568 118.375 19.64C118.375 18.712 118.479 17.984 118.687 17.456C118.911 16.912 119.295 16.528 119.839 16.304C120.383 16.08 121.143 15.968 122.119 15.968C122.279 15.968 122.527 15.976 122.863 15.992C123.215 15.992 123.615 16 124.063 16.016C124.511 16.016 124.959 16.024 125.407 16.04C125.871 16.04 126.295 16.048 126.679 16.064V15.296C126.679 14.576 126.631 14.016 126.535 13.616C126.455 13.2 126.279 12.896 126.007 12.704C125.735 12.496 125.351 12.368 124.855 12.32C124.375 12.256 123.735 12.224 122.935 12.224C122.583 12.224 122.167 12.24 121.687 12.272C121.207 12.288 120.735 12.32 120.271 12.368C119.823 12.4 119.463 12.44 119.191 12.488V10.904C119.799 10.792 120.479 10.712 121.231 10.664C121.999 10.6 122.791 10.568 123.607 10.568C124.471 10.568 125.199 10.624 125.791 10.736C126.399 10.832 126.887 10.992 127.255 11.216C127.639 11.44 127.927 11.736 128.119 12.104C128.311 12.472 128.439 12.92 128.503 13.448C128.583 13.976 128.623 14.592 128.623 15.296V23H126.871L126.799 21.272H126.655C126.399 21.832 126.031 22.256 125.551 22.544C125.087 22.816 124.575 22.992 124.015 23.072C123.455 23.152 122.919 23.192 122.407 23.192ZM123.127 21.584C123.591 21.584 124.023 21.56 124.423 21.512C124.823 21.448 125.175 21.336 125.479 21.176C125.783 21.016 126.023 20.776 126.199 20.456C126.375 20.12 126.495 19.76 126.559 19.376C126.639 18.976 126.679 18.512 126.679 17.984V17.36H122.599C121.975 17.36 121.495 17.408 121.159 17.504C120.823 17.6 120.591 17.8 120.463 18.104C120.351 18.408 120.295 18.864 120.295 19.472C120.295 20.064 120.367 20.512 120.511 20.816C120.655 21.12 120.927 21.328 121.327 21.44C121.743 21.536 122.343 21.584 123.127 21.584ZM137.863 23.192C137.399 23.192 136.903 23.176 136.375 23.144C135.847 23.112 135.327 23.072 134.815 23.024C134.303 22.992 133.839 22.944 133.423 22.88V21.296C133.807 21.328 134.175 21.36 134.527 21.392C134.895 21.424 135.255 21.456 135.607 21.488C135.959 21.504 136.311 21.52 136.663 21.536C137.015 21.536 137.375 21.536 137.743 21.536C138.575 21.536 139.175 21.48 139.543 21.368C139.927 21.24 140.175 21.032 140.287 20.744C140.415 20.456 140.479 20.08 140.479 19.616C140.479 19.088 140.431 18.704 140.335 18.464C140.255 18.224 140.103 18.072 139.879 18.008C139.671 17.928 139.351 17.864 138.919 17.816L135.751 17.456C134.999 17.376 134.431 17.216 134.047 16.976C133.663 16.72 133.399 16.36 133.255 15.896C133.111 15.432 133.039 14.848 133.039 14.144C133.039 13.344 133.151 12.704 133.375 12.224C133.599 11.744 133.919 11.384 134.335 11.144C134.751 10.904 135.255 10.752 135.847 10.688C136.439 10.608 137.103 10.568 137.839 10.568C138.255 10.568 138.695 10.584 139.159 10.616C139.623 10.648 140.079 10.688 140.527 10.736C140.975 10.784 141.359 10.84 141.679 10.904V12.488C141.263 12.424 140.839 12.376 140.407 12.344C139.991 12.296 139.559 12.264 139.111 12.248C138.679 12.232 138.239 12.224 137.791 12.224C137.183 12.224 136.663 12.256 136.231 12.32C135.799 12.384 135.471 12.544 135.247 12.8C135.039 13.056 134.935 13.48 134.935 14.072C134.935 14.536 134.967 14.888 135.031 15.128C135.111 15.352 135.263 15.512 135.487 15.608C135.711 15.688 136.023 15.752 136.423 15.8L139.735 16.16C140.391 16.224 140.903 16.352 141.271 16.544C141.655 16.72 141.927 17.04 142.087 17.504C142.263 17.968 142.351 18.664 142.351 19.592C142.351 20.36 142.255 20.984 142.063 21.464C141.887 21.928 141.607 22.288 141.223 22.544C140.839 22.8 140.367 22.968 139.807 23.048C139.247 23.144 138.599 23.192 137.863 23.192ZM146.759 23V5.168H148.727V15.968H150.263L154.583 10.76H156.791L151.823 16.688L156.863 23H154.583L150.263 17.648H148.727V23H146.759Z" fill="white"/>
<path fill-rule="evenodd" clip-rule="evenodd" d="M21 15.5C21 13.0187 18.9813 11 16.5 11C14.0187 11 12 13.0187 12 15.5C12 17.9813 14.0187 20 16.5 20C18.9813 20 21 17.9813 21 15.5Z" fill="white"/>
<path fill-rule="evenodd" clip-rule="evenodd" d="M4.5 17.25C4.5 16.0094 3.49065 15 2.25 15C1.00935 15 -1.41503e-06 16.0094 -1.46926e-06 17.25C-1.52349e-06 18.4907 1.00935 19.5 2.25 19.5C3.49065 19.5 4.5 18.4907 4.5 17.25Z" fill="white"/>
<path fill-rule="evenodd" clip-rule="evenodd" d="M30 4.5C30 2.5701 28.4299 1 26.5 1C24.5701 1 23 2.5701 23 4.5C23 6.4299 24.5701 8 26.5 8C28.4299 8 30 6.4299 30 4.5Z" fill="white"/>
<circle cx="16.5" cy="15.5" r="9.5" stroke="white" stroke-width="1.5"/>
<circle cx="16.5" cy="15.5" r="14.5" stroke="white" stroke-width="1.5"/>
</svg>
